<svg xmlns:xlink="http://www.w3.org/1999/xlink" version="1.1" class="highcharts-root" style="font-family:&quot;Lucida Grande&quot;, &quot;Lucida Sans Unicode&quot;, Arial, Helvetica, sans-serif;font-size:12px;" xmlns="http://www.w3.org/2000/svg" width="1920" height="1080" viewBox="0 0 1920 1080"><desc>Created with Highcharts 7.1.2</desc><defs><clipPath id="highcharts-dtze2pj-5646-"><rect x="-150" y="-150" width="1380" height="2220" fill="none"></rect></clipPath></defs><rect fill="#ffffff" class="highcharts-background" x="0" y="0" width="1920" height="1080" rx="0" ry="0"></rect><g stroke-linejoin="round" class="highcharts-3d-frame highcharts-3d-frame-bottom" data-z-index="-1000"><path fill="rgb(25,25,25)" fill-opacity="0.01" d="M 187.7941760520157 883.3276402642678 L 1493.1040920277499 1018.8095931403677 L 1764.1917710894634 957.0878647521329 L 479.5780001176109 829.9582350594479 Z" visibility="hidden"></path><path fill="rgb(25,25,25)" fill-opacity="0.01" d="M 479.746927887178 829.214407647221 L 1763.675453088425 956.2198482094805 L 1493.1090685263625 1017.7899155393382 L 188.5354408752953 882.4569746021509 Z" visibility="visible"></path><path fill="rgb(0,0,0)" fill-opacity="0.01" d="M 187.7941760520157 883.3276402642678 L 479.5780001176109 829.9582350594479 L 479.746927887178 829.214407647221 L 188.5354408752953 882.4569746021509 Z" visibility="hidden"></path><path fill="rgb(0,0,0)" fill-opacity="0.01" d="M 1764.1917710894634 957.0878647521329 L 1493.1040920277499 1018.8095931403677 L 1493.1090685263625 1017.7899155393382 L 1763.675453088425 956.2198482094805 Z" visibility="visible"></path><path fill="rgb(0,0,0)" fill-opacity="0.01" d="M 1493.1040920277499 1018.8095931403677 L 187.7941760520157 883.3276402642678 L 188.5354408752953 882.4569746021509 L 1493.1090685263625 1017.7899155393382 Z" visibility="visible"></path><path fill="rgb(0,0,0)" fill-opacity="0.01" d="M 479.5780001176109 829.9582350594479 L 1764.1917710894634 957.0878647521329 L 1763.675453088425 956.2198482094805 L 479.746927887178 829.214407647221 Z" visibility="hidden"></path></g><g stroke-linejoin="round" class="highcharts-3d-frame highcharts-3d-frame-left" data-z-index="-1000"><path fill="rgb(25,25,25)" fill-opacity="0.01" d="M 187.7941760520157 883.3276402642678 L 188.5354408752953 882.4569746021509 L 479.746927887178 829.214407647221 L 479.5780001176109 829.9582350594479 Z" visibility="hidden"></path><path fill="rgb(25,25,25)" fill-opacity="0.01" d="M 476.40220135607757 106.63686123169151 L 476.57598238007824 106.73946442745967 L 183.28236618689448 137.74148332517524 L 182.52954555071392 137.69629426157007 Z" visibility="visible"></path><path fill="rgb(0,0,0)" fill-opacity="0.01" d="M 479.5780001176109 829.9582350594479 L 476.40220135607757 106.63686123169151 L 182.52954555071392 137.69629426157007 L 187.7941760520157 883.3276402642678 Z" visibility="hidden"></path><path fill="rgb(0,0,0)" fill-opacity="0.01" d="M 476.57598238007824 106.73946442745967 L 479.746927887178 829.214407647221 L 188.5354408752953 882.4569746021509 L 183.28236618689448 137.74148332517524 Z" visibility="visible"></path><path fill="rgb(0,0,0)" fill-opacity="0.01" d="M 187.7941760520157 883.3276402642678 L 182.52954555071392 137.69629426157007 L 183.28236618689448 137.74148332517524 L 188.5354408752953 882.4569746021509 Z" visibility="visible"></path><path fill="rgb(0,0,0)" fill-opacity="0.01" d="M 476.40220135607757 106.63686123169151 L 479.5780001176109 829.9582350594479 L 479.746927887178 829.214407647221 L 476.57598238007824 106.73946442745967 Z" visibility="hidden"></path></g><g stroke-linejoin="round" class="highcharts-3d-frame highcharts-3d-frame-back" data-z-index="-1000"><path fill="rgb(25,25,25)" fill-opacity="0.01" d="M 1764.1917710894634 957.0878647521329 L 479.5780001176109 829.9582350594479 L 479.746927887178 829.214407647221 L 1763.675453088425 956.2198482094805 Z" visibility="hidden"></path><path fill="rgb(25,25,25)" fill-opacity="0.01" d="M 476.40220135607757 106.63686123169151 L 1769.9048937704313 180.64364318361902 L 1769.3779691054986 180.7130731656885 L 476.57598238007824 106.73946442745967 Z" visibility="visible"></path><path fill="rgb(0,0,0)" fill-opacity="0.01" d="M 479.5780001176109 829.9582350594479 L 476.40220135607757 106.63686123169151 L 476.57598238007824 106.73946442745967 L 479.746927887178 829.214407647221 Z" visibility="hidden"></path><path fill="rgb(0,0,0)" fill-opacity="0.01" d="M 1769.9048937704313 180.64364318361902 L 1764.1917710894634 957.0878647521329 L 1763.675453088425 956.2198482094805 L 1769.3779691054986 180.7130731656885 Z" visibility="visible"></path><path fill="rgb(0,0,0)" fill-opacity="0.01" d="M 476.57598238007824 106.73946442745967 L 1769.3779691054986 180.7130731656885 L 1763.675453088425 956.2198482094805 L 479.746927887178 829.214407647221 Z" visibility="visible"></path><path fill="rgb(0,0,0)" fill-opacity="0.01" d="M 479.5780001176109 829.9582350594479 L 1764.1917710894634 957.0878647521329 L 1769.9048937704313 180.64364318361902 L 476.40220135607757 106.63686123169151 Z" visibility="hidden"></path></g><rect fill="none" class="highcharts-plot-background" x="150" y="150" width="1620" height="780"></rect><g class="highcharts-pane-group" data-z-index="0"></g><g class="highcharts-grid highcharts-xaxis-grid" data-z-index="1"><path fill="none" stroke="#e6e6e6" stroke-width="1" stroke-dasharray="none" data-z-index="1" class="highcharts-grid-line" d="M 479.7166361095635 822.3126648506266 L 1763.7299023409144 948.8150879115635 M 188.4852688891001 875.3442153965403 L 479.7166361095635 822.3126648506266" opacity="1"></path><path fill="none" stroke="#e6e6e6" stroke-width="1" stroke-dasharray="none" data-z-index="1" class="highcharts-grid-line" d="M 479.21525760935674 708.0775249980222 L 1764.6312005513905 826.2441268714945 M 187.6548118290574 757.6123585052288 L 479.21525760935674 708.0775249980222" opacity="1"></path><path fill="none" stroke="#e6e6e6" stroke-width="1" stroke-dasharray="none" data-z-index="1" class="highcharts-grid-line" d="M 478.7087751207079 592.6794816039937 L 1765.5418155511898 702.406140325468 M 186.8158460793262 638.6742455834344 L 478.7087751207079 592.6794816039937" opacity="1"></path><path fill="none" stroke="#e6e6e6" stroke-width="1" stroke-dasharray="none" data-z-index="1" class="highcharts-grid-line" d="M 478.4124954763851 525.174499657766 L 1766.0745686660648 629.9550242261226 M 186.32504651243846 569.0947969263608 L 478.4124954763851 525.174499657766" opacity="1"></path><path fill="none" stroke="#e6e6e6" stroke-width="1" stroke-dasharray="none" data-z-index="1" class="highcharts-grid-line" d="M 478.20122439919186 477.03804977004165 L 1766.4544940036185 578.2875370324749 M 185.97505568188956 519.4774568397758 L 478.20122439919186 477.03804977004165" opacity="1"></path><path fill="none" stroke="#e6e6e6" stroke-width="1" stroke-dasharray="none" data-z-index="1" class="highcharts-grid-line" d="M 478.03858200536393 439.9812621390767 L 1766.7469880555357 538.5101618804161 M 185.70561641655343 481.2797142306363 L 478.03858200536393 439.9812621390767" opacity="1"></path><path fill="none" stroke="#e6e6e6" stroke-width="1" stroke-dasharray="none" data-z-index="1" class="highcharts-grid-line" d="M 477.52961603390185 324.01737675866843 L 1767.6624010221562 414.01968163421014 M 184.8624083553974 361.7401792419057 L 477.52961603390185 324.01737675866843" opacity="1"></path><path fill="none" stroke="#e6e6e6" stroke-width="1" stroke-dasharray="none" data-z-index="1" class="highcharts-grid-line" d="M 477.0195739588328 207.80830965230098 L 1768.5798937804489 289.24636263270816 M 184.01736178172268 241.94000285079767 L 477.0195739588328 207.80830965230098" opacity="1"></path><path fill="none" stroke="#e6e6e6" stroke-width="1" stroke-dasharray="none" data-z-index="1" class="highcharts-grid-line" d="M 476.72121029847585 139.82850107703814 L 1769.1166743387785 216.2475392273588 M 183.52300182213685 171.85580606913794 L 476.72121029847585 139.82850107703814" opacity="1"></path></g><g class="highcharts-grid highcharts-zaxis-grid" data-z-index="1"><path fill="none" stroke="#e6e6e6" stroke-width="1" stroke-dasharray="none" data-z-index="1" class="highcharts-grid-line" d="M 201.69786073482442 135.79491006730495 L 206.81668545394325 879.114591379272 M 206.81668545394325 879.114591379272 L 1510.1310315019505 1013.9163988488237" opacity="1"></path><path fill="none" stroke="#e6e6e6" stroke-width="1" stroke-dasharray="none" data-z-index="1" class="highcharts-grid-line" d="M 244.29617566832485 131.2921398341154 L 249.10626131803008 871.382734378908 M 249.10626131803008 871.382734378908 L 1549.4886414317978 1004.9601839175225" opacity="1"></path><path fill="none" stroke="#e6e6e6" stroke-width="1" stroke-dasharray="none" data-z-index="1" class="highcharts-grid-line" d="M 286.52004106455365 126.82895004519656 L 291.02658898148593 863.7183874972102 M 291.02658898148593 863.7183874972102 L 1588.4765788948835 996.0880916266051" opacity="1"></path><path fill="none" stroke="#e6e6e6" stroke-width="1" stroke-dasharray="none" data-z-index="1" class="highcharts-grid-line" d="M 328.37437257224235 122.40482110166732 L 332.5824835167705 856.1206703883497 M 332.5824835167705 856.1206703883497 L 1627.1000278547435 987.298942313696" opacity="1"></path><path fill="none" stroke="#e6e6e6" stroke-width="1" stroke-dasharray="none" data-z-index="1" class="highcharts-grid-line" d="M 370.44577946786944 117.95774663560525 L 374.3563583155536 848.4830996703706 M 374.3563583155536 848.4830996703706 L 1665.9004634604496 978.4695179321791" opacity="1"></path><path fill="none" stroke="#e6e6e6" stroke-width="1" stroke-dasharray="none" data-z-index="1" class="highcharts-grid-line" d="M 411.5704130089415 113.61074896565879 L 415.1925322818827 841.0169699895154 M 415.1925322818827 841.0169699895154 L 1703.8051471898818 969.8439307842579" opacity="1"></path><path fill="none" stroke="#e6e6e6" stroke-width="1" stroke-dasharray="none" data-z-index="1" class="highcharts-grid-line" d="M 452.3398181085546 109.30130001224444 L 455.6782891423436 833.6149075142938 M 455.6782891423436 833.6149075142938 L 1741.3603927068161 961.2978617712515" opacity="1"></path></g><g class="highcharts-grid highcharts-yaxis-grid" data-z-index="1"><path fill="none" stroke="#e6e6e6" stroke-width="1" stroke-dasharray="none" data-z-index="1" class="highcharts-grid-line" d="M 476.2046947276214 106.71821949759862 L 479.3780080502183 829.1779143179542 M 188.16145260268775 882.4181780699082 L 479.3780080502183 829.1779143179542" opacity="1"></path><path fill="none" stroke="#e6e6e6" stroke-width="1" stroke-dasharray="none" data-z-index="1" class="highcharts-grid-line" d="M 520.8731770508377 109.27413205670416 L 523.7608810804568 833.5682415300867 M 233.15763630921617 887.0859605107651 L 523.7608810804568 833.5682415300867" opacity="1"></path><path fill="none" stroke="#e6e6e6" stroke-width="1" stroke-dasharray="none" data-z-index="1" class="highcharts-grid-line" d="M 565.7726865990825 111.84326390053207 L 568.3717907505718 837.9811259900282 M 278.39222965586407 891.778474923096 L 568.3717907505718 837.9811259900282" opacity="1"></path><path fill="none" stroke="#e6e6e6" stroke-width="1" stroke-dasharray="none" data-z-index="1" class="highcharts-grid-line" d="M 610.9050203428013 114.42571785100705 L 613.2124990456927 842.4167419922919 M 323.86713247494777 896.4959183903692 L 613.2124990456927 842.4167419922919" opacity="1"></path><path fill="none" stroke="#e6e6e6" stroke-width="1" stroke-dasharray="none" data-z-index="1" class="highcharts-grid-line" d="M 656.2719939370882 117.02159779918202 L 658.2847861504121 846.8752656316716 M 369.5842648383216 901.2384900956474 L 658.2847861504121 846.8752656316716" opacity="1"></path><path fill="none" stroke="#e6e6e6" stroke-width="1" stroke-dasharray="none" data-z-index="1" class="highcharts-grid-line" d="M 701.8754419651677 119.63100871916993 L 703.5904506843717 851.3568748265444 M 415.5455673276218 906.0063913496227 L 703.5904506843717 851.3568748265444" opacity="1"></path><path fill="none" stroke="#e6e6e6" stroke-width="1" stroke-dasharray="none" data-z-index="1" class="highcharts-grid-line" d="M 747.7172181856963 122.25405668229399 L 749.1313099415157 855.8617493425389 M 461.75300130884915 910.7998256191012 L 749.1313099415157 855.8617493425389" opacity="1"></path><path fill="none" stroke="#e6e6e6" stroke-width="1" stroke-dasharray="none" data-z-index="1" class="highcharts-grid-line" d="M 793.7991957839507 124.89084887146095 L 794.9092001330813 860.3900708165704 M 508.2085492113778 915.6189985559461 L 794.9092001330813 860.3900708165704" opacity="1"></path><path fill="none" stroke="#e6e6e6" stroke-width="1" stroke-dasharray="none" data-z-index="1" class="highcharts-grid-line" d="M 840.1232676269744 127.54149359576024 L 840.9259766343921 864.9420227812548 M 554.9142148114689 920.4641180264891 L 840.9259766343921 864.9420227812548" opacity="1"></path><path fill="none" stroke="#e6e6e6" stroke-width="1" stroke-dasharray="none" data-z-index="1" class="highcharts-grid-line" d="M 886.691346522757 130.2061003052944 L 887.1835142355258 869.5177906897031 M 601.8720235203771 925.3353941414177 L 887.1835142355258 869.5177906897031" opacity="1"></path><path fill="none" stroke="#e6e6e6" stroke-width="1" stroke-dasharray="none" data-z-index="1" class="highcharts-grid-line" d="M 933.5053654835197 132.88477960624363 L 933.6837073959272 874.1175619407088 M 649.0840226771343 930.2330392861476 L 933.6837073959272 874.1175619407088" opacity="1"></path><path fill="none" stroke="#e6e6e6" stroke-width="1" stroke-dasharray="none" data-z-index="1" class="highcharts-grid-line" d="M 980.5672779931828 135.57764327617087 L 980.4284705030373 878.741525904331 M 696.5522818461023 935.1572681516902 L 980.4284705030373 878.741525904331" opacity="1"></path><path fill="none" stroke="#e6e6e6" stroke-width="1" stroke-dasharray="none" data-z-index="1" class="highcharts-grid-line" d="M 1027.879058279094 138.2848042795692 L 1027.4197381350152 883.3898739478818 M 744.2788931193832 940.1082977660237 L 1027.4197381350152 883.3898739478818" opacity="1"></path><path fill="none" stroke="#e6e6e6" stroke-width="1" stroke-dasharray="none" data-z-index="1" class="highcharts-grid-line" d="M 1075.442701588096 141.00637678365928 L 1074.6594653276275 888.0627994623284 M 792.2659714241812 945.0863475259785 L 1074.6594653276275 888.0627994623284" opacity="1"></path><path fill="none" stroke="#e6e6e6" stroke-width="1" stroke-dasharray="none" data-z-index="1" class="highcharts-grid-line" d="M 1123.2602244670159 143.74247617443763 L 1122.14962784538 892.760497889112 M 840.5156548352103 950.091639229644 L 1122.14962784538 892.760497889112" opacity="1"></path><path fill="none" stroke="#e6e6e6" stroke-width="1" stroke-dasharray="none" data-z-index="1" class="highcharts-grid-line" d="M 1171.333665047655 146.4932190729849 L 1169.8922224569767 897.4831667473966 M 889.030104892245 955.1243971093126 L 1169.8922224569767 897.4831667473966" opacity="1"></path><path fill="none" stroke="#e6e6e6" stroke-width="1" stroke-dasharray="none" data-z-index="1" class="highcharts-grid-line" d="M 1219.665083336371 149.25872335203456 L 1217.8892672151796 902.2310056617525 M 937.8115069229132 960.1848478649639 L 1217.8892672151796 902.2310056617525" opacity="1"></path><path fill="none" stroke="#e6e6e6" stroke-width="1" stroke-dasharray="none" data-z-index="1" class="highcharts-grid-line" d="M 1268.2565615083313 152.03910815281097 L 1266.1428017411574 907.0042163902838 M 986.8620703708316 965.2732206983048 L 1266.1428017411574 907.0042163902838" opacity="1"></path><path fill="none" stroke="#e6e6e6" stroke-width="1" stroke-dasharray="none" data-z-index="1" class="highcharts-grid-line" d="M 1317.1102042065304 154.83449390213787 L 1314.6548875134038 911.8030028532082 M 1036.1840291291892 970.3897473473753 L 1314.6548875134038 911.8030028532082" opacity="1"></path><path fill="none" stroke="#e6e6e6" stroke-width="1" stroke-dasharray="none" data-z-index="1" class="highcharts-grid-line" d="M 1366.22813884566 157.64500232982687 L 1363.427608161313 916.6275711618971 M 1085.7796418798812 975.5346621217282 L 1363.427608161313 916.6275711618971" opacity="1"></path><path fill="none" stroke="#e6e6e6" stroke-width="1" stroke-dasharray="none" data-z-index="1" class="highcharts-grid-line" d="M 1415.6125159209246 160.47075648634694 L 1412.463069763499 921.4781296483856 M 1135.6511924383062 980.708201938198 L 1412.463069763499 921.4781296483856" opacity="1"></path><path fill="none" stroke="#e6e6e6" stroke-width="1" stroke-dasharray="none" data-z-index="1" class="highcharts-grid-line" d="M 1465.2655093218953 163.31188076078337 L 1461.7634011509515 926.3548888953594 M 1185.8009901039316 985.9106063572679 L 1461.7634011509515 926.3548888953594" opacity="1"></path><path fill="none" stroke="#e6e6e6" stroke-width="1" stroke-dasharray="none" data-z-index="1" class="highcharts-grid-line" d="M 1515.1893166515001 166.16850089909025 L 1511.3307542151128 931.2580617666314 M 1236.2313700167454 991.1421176200467 L 1511.3307542151128 931.2580617666314" opacity="1"></path><path fill="none" stroke="#e6e6e6" stroke-width="1" stroke-dasharray="none" data-z-index="1" class="highcharts-grid-line" d="M 1565.386159550248 169.04074402264212 L 1561.1673042209802 936.1878634381117 M 1286.9446935197068 996.4029806858686 L 1561.1673042209802 936.1878634381117" opacity="1"></path><path fill="none" stroke="#e6e6e6" stroke-width="1" stroke-dasharray="none" data-z-index="1" class="highcharts-grid-line" d="M 1615.8582840257857 171.92873864709156 L 1611.275250125319 941.144511429286 M 1337.9433485273141 1001.6934432705273 L 1611.275250125319 941.144511429286" opacity="1"></path><path fill="none" stroke="#e6e6e6" stroke-width="1" stroke-dasharray="none" data-z-index="1" class="highcharts-grid-line" d="M 1666.6079607878924 174.83261470153718 L 1661.6568149000896 946.1282256352094 M 1389.2297499004123 1007.0137558851579 L 1661.6568149000896 946.1282256352094" opacity="1"></path><path fill="none" stroke="#e6e6e6" stroke-width="1" stroke-dasharray="none" data-z-index="1" class="highcharts-grid-line" d="M 1717.6374855890158 177.75250354800903 L 1712.3142458611896 951.1392283590242 M 1440.806339827363 1012.3641718757781 L 1712.3142458611896 951.1392283590242" opacity="1"></path><path fill="none" stroke="#e6e6e6" stroke-width="1" stroke-dasharray="none" data-z-index="1" class="highcharts-grid-line" d="M 1769.8067783998117 180.73760946071786 L 1764.1011106500982 956.2619540004866 M 1493.5425693392904 1017.8348857416088 L 1764.1011106500982 956.2619540004866" opacity="1"></path></g><rect fill="none" class="highcharts-plot-border" data-z-index="1" x="150" y="150" width="1620" height="780"></rect><g class="highcharts-axis highcharts-xaxis" data-z-index="2"><text x="146.57502103908587" data-z-index="7" text-anchor="middle" transform="translate(0,0) rotate(270 146.57502103908587 511.3626610439221)" class="highcharts-axis-title" style="color:#666666;font-weight:normal;fill:#666666;" y="511.3626610439221" z="511.6345097965389"><tspan>PLS_number_of_components</tspan></text><path fill="none" class="highcharts-axis-line" stroke="#ccd6eb" stroke-width="1" data-z-index="7" d="M 0 0"></path></g><g class="highcharts-axis highcharts-zaxis" data-z-index="2"><text x="1630.6179436102052" data-z-index="7" text-anchor="middle" transform="translate(0,0)" class="highcharts-axis-title" style="color:#666666;font-weight:normal;fill:#666666;" y="1026.0371872590467" z="-170.33327277320632"><tspan>Number of features</tspan></text><path fill="none" class="highcharts-axis-line" data-z-index="7" d="M 0 0"></path></g><g class="highcharts-axis highcharts-yaxis" data-z-index="2"><text x="816.7599420492672" data-z-index="7" text-anchor="middle" transform="translate(0,0)" class="highcharts-axis-title" style="color:#666666;font-weight:normal;fill:#666666;" y="1045.9094233551232" z="91.3012370233327"><tspan>PLS</tspan></text><path fill="none" class="highcharts-axis-line" data-z-index="7" d="M 0 0"></path></g><g class="highcharts-series-group" data-z-index="3"><g data-z-index="0.1" class="highcharts-series highcharts-series-9 highcharts-scatter3d-series " transform="translate(1770,930) rotate(90) scale(-1,1) scale(1 1)" clip-path="url(#highcharts-dtze2pj-5646-)"></g><g data-z-index="0.1" class="highcharts-markers highcharts-series-9 highcharts-scatter3d-series " transform="translate(1770,930) rotate(90) scale(-1,1) scale(1 1)" clip-path="none"><path fill="#91e8e1" d="M 728 1236 A 4 4 0 1 1 728.0039999993334 1235.9999980000002 Z" opacity="1" data-z-index="12266.528632639494" class="highcharts-point"></path></g><g data-z-index="0.1" class="highcharts-series highcharts-series-8 highcharts-scatter3d-series " transform="translate(1770,930) rotate(90) scale(-1,1) scale(1 1)" clip-path="url(#highcharts-dtze2pj-5646-)"></g><g data-z-index="0.1" class="highcharts-markers highcharts-series-8 highcharts-scatter3d-series " transform="translate(1770,930) rotate(90) scale(-1,1) scale(1 1)" clip-path="none"><path fill="#f45b5b" d="M 806 1232 A 4 4 0 1 1 806.0039999993334 1231.9999980000002 Z" opacity="1" data-z-index="12278.216113931621" class="highcharts-point"></path><path fill="#f45b5b" d="M 260 1252 A 4 4 0 1 1 260.00399999933336 1251.9999980000002 Z" opacity="1" data-z-index="12364.015840731947" class="highcharts-point"></path><path fill="#f45b5b" d="M 232 1146 A 4 4 0 1 1 232.00399999933333 1145.9999980000002 Z" opacity="1" data-z-index="12585.610209402455" class="highcharts-point"></path><path fill="#f45b5b" d="M 140 345 A 4 4 0 1 1 140.00399999933333 344.9999980000002 Z" opacity="1" data-z-index="13276.346094688597" class="highcharts-point"></path></g><g data-z-index="0.1" class="highcharts-series highcharts-series-7 highcharts-scatter3d-series " transform="translate(1770,930) rotate(90) scale(-1,1) scale(1 1)" clip-path="url(#highcharts-dtze2pj-5646-)"></g><g data-z-index="0.1" class="highcharts-markers highcharts-series-7 highcharts-scatter3d-series " transform="translate(1770,930) rotate(90) scale(-1,1) scale(1 1)" clip-path="none"><path fill="#2b908f" d="M 633 1237 A 4 4 0 1 1 633.0039999993334 1236.9999980000002 Z" opacity="1" data-z-index="12254.76866953478" class="highcharts-point"></path><path fill="#2b908f" d="M 308 1244 A 4 4 0 1 1 308.00399999933336 1243.9999980000002 Z" opacity="1" data-z-index="12372.81054926012" class="highcharts-point"></path><path fill="#2b908f" d="M 648 1240 A 4 4 0 1 1 648.0039999993334 1239.9999980000002 Z" opacity="1" data-z-index="12558.835790391522" class="highcharts-point"></path><path fill="#2b908f" d="M 15 1069 A 4 4 0 1 1 15.003999999333336 1068.9999980000002 Z" opacity="1" data-z-index="12774.544225175548" class="highcharts-point"></path></g><g data-z-index="0.1" class="highcharts-series highcharts-series-6 highcharts-scatter3d-series " transform="translate(1770,930) rotate(90) scale(-1,1) scale(1 1)" clip-path="url(#highcharts-dtze2pj-5646-)"></g><g data-z-index="0.1" class="highcharts-markers highcharts-series-6 highcharts-scatter3d-series " transform="translate(1770,930) rotate(90) scale(-1,1) scale(1 1)" clip-path="none"><path fill="#e4d354" d="M 430 1134 A 4 4 0 1 1 430.00399999933336 1133.9999980000002 Z" opacity="1" data-z-index="12852.719291794527" class="highcharts-point"></path></g><g data-z-index="0.1" class="highcharts-series highcharts-series-5 highcharts-scatter3d-series " transform="translate(1770,930) rotate(90) scale(-1,1) scale(1 1)" clip-path="url(#highcharts-dtze2pj-5646-)"></g><g data-z-index="0.1" class="highcharts-markers highcharts-series-5 highcharts-scatter3d-series " transform="translate(1770,930) rotate(90) scale(-1,1) scale(1 1)" clip-path="none"><path fill="#f15c80" d="M 394 664 A 4 4 0 1 1 394.00399999933336 663.9999980000001 Z" opacity="1" data-z-index="13153.392438478417" class="highcharts-point"></path><path fill="#f15c80" d="M 282 328 A 4 4 0 1 1 282.00399999933336 327.9999980000002 Z" opacity="1" data-z-index="13167.494339688685" class="highcharts-point"></path><path fill="#f15c80" d="M 276 359 A 4 4 0 1 1 276.00399999933336 358.9999980000002 Z" opacity="1" data-z-index="13213.816222143323" class="highcharts-point"></path><path fill="#f15c80" d="M 382 407 A 4 4 0 1 1 382.00399999933336 406.9999980000002 Z" opacity="1" data-z-index="13257.482567734653" class="highcharts-point"></path></g><g data-z-index="0.1" class="highcharts-series highcharts-series-4 highcharts-scatter3d-series " transform="translate(1770,930) rotate(90) scale(-1,1) scale(1 1)" clip-path="url(#highcharts-dtze2pj-5646-)"></g><g data-z-index="0.1" class="highcharts-markers highcharts-series-4 highcharts-scatter3d-series " transform="translate(1770,930) rotate(90) scale(-1,1) scale(1 1)" clip-path="none"><path fill="#8085e9" d="M 781 1212 A 4 4 0 1 1 781.0039999993334 1211.9999980000002 Z" opacity="1" data-z-index="12221.3413286898" class="highcharts-point"></path></g><g data-z-index="0.1" class="highcharts-series highcharts-series-3 highcharts-scatter3d-series " transform="translate(1770,930) rotate(90) scale(-1,1) scale(1 1)" clip-path="url(#highcharts-dtze2pj-5646-)"></g><g data-z-index="0.1" class="highcharts-markers highcharts-series-3 highcharts-scatter3d-series " transform="translate(1770,930) rotate(90) scale(-1,1) scale(1 1)" clip-path="none"><path fill="#434348" d="M 367 1211 A 4 4 0 1 1 367.00399999933336 1210.9999980000002 Z" opacity="1" data-z-index="12179.077507779395" class="highcharts-point"></path><path fill="#434348" d="M 748 1238 A 4 4 0 1 1 748.0039999993334 1237.9999980000002 Z" opacity="1" data-z-index="12367.511895583588" class="highcharts-point"></path><path fill="#434348" d="M 287 1154 A 4 4 0 1 1 287.00399999933336 1153.9999980000002 Z" opacity="1" data-z-index="12548.639321518524" class="highcharts-point"></path><path fill="#434348" d="M 580 329 A 4 4 0 1 1 580.0039999993334 328.9999980000002 Z" opacity="1" data-z-index="13302.954496981081" class="highcharts-point"></path></g><g data-z-index="0.1" class="highcharts-series highcharts-series-2 highcharts-scatter3d-series " transform="translate(1770,930) rotate(90) scale(-1,1) scale(1 1)" clip-path="url(#highcharts-dtze2pj-5646-)"></g><g data-z-index="0.1" class="highcharts-markers highcharts-series-2 highcharts-scatter3d-series " transform="translate(1770,930) rotate(90) scale(-1,1) scale(1 1)" clip-path="none"><path fill="#f7a35c" d="M 441 1155 A 4 4 0 1 1 441.00399999933336 1154.9999980000002 Z" opacity="1" data-z-index="12225.119086500845" class="highcharts-point"></path><path fill="#f7a35c" d="M 783 1227 A 4 4 0 1 1 783.0039999993334 1226.9999980000002 Z" opacity="1" data-z-index="12379.118150089731" class="highcharts-point"></path><path fill="#f7a35c" d="M 445 1156 A 4 4 0 1 1 445.00399999933336 1155.9999980000002 Z" opacity="1" data-z-index="12560.447086806567" class="highcharts-point"></path><path fill="#f7a35c" d="M 260 1073 A 4 4 0 1 1 260.00399999933336 1072.9999980000002 Z" opacity="1" data-z-index="12770.252213815276" class="highcharts-point"></path></g><g data-z-index="0.1" class="highcharts-series highcharts-series-1 highcharts-scatter3d-series " transform="translate(1770,930) rotate(90) scale(-1,1) scale(1 1)" clip-path="url(#highcharts-dtze2pj-5646-)"></g><g data-z-index="0.1" class="highcharts-markers highcharts-series-1 highcharts-scatter3d-series " transform="translate(1770,930) rotate(90) scale(-1,1) scale(1 1)" clip-path="none"><path fill="#90ed7d" d="M 393 1117 A 4 4 0 1 1 393.00399999933336 1116.9999980000002 Z" opacity="1" data-z-index="12861.159190471022" class="highcharts-point"></path></g><g data-z-index="0.1" class="highcharts-series highcharts-series-0 highcharts-scatter3d-series " transform="translate(1770,930) rotate(90) scale(-1,1) scale(1 1)" clip-path="url(#highcharts-dtze2pj-5646-)"></g><g data-z-index="0.1" class="highcharts-markers highcharts-series-0 highcharts-scatter3d-series " transform="translate(1770,930) rotate(90) scale(-1,1) scale(1 1)" clip-path="none"><path fill="#7cb5ec" d="M 356 644 A 4 4 0 1 1 356.00399999933336 643.9999980000001 Z" opacity="1" data-z-index="13163.915794543771" class="highcharts-point"></path><path fill="#7cb5ec" d="M 246 293 A 4 4 0 1 1 246.00399999933333 292.9999980000002 Z" opacity="1" data-z-index="13188.866803452544" class="highcharts-point"></path><path fill="#7cb5ec" d="M 240 331 A 4 4 0 1 1 240.00399999933333 330.9999980000002 Z" opacity="1" data-z-index="13230.943932938324" class="highcharts-point"></path><path fill="#7cb5ec" d="M 235 375 A 4 4 0 1 1 235.00399999933333 374.9999980000002 Z" opacity="1" data-z-index="13268.973377827235" class="highcharts-point"></path></g></g><text x="960" text-anchor="middle" class="highcharts-title" data-z-index="4" style="color:#333333;font-size:18px;fill:#333333;" y="24"></text><text x="960" text-anchor="middle" class="highcharts-subtitle" data-z-index="4" style="color:#666666;fill:#666666;" y="24"></text><g class="highcharts-legend" data-z-index="7" transform="translate(495,10)"><rect fill="none" class="highcharts-legend-box" rx="0" ry="0" x="0" y="0" width="929" height="29" visibility="visible"></rect><g data-z-index="1"><g><g class="highcharts-legend-item highcharts-scatter3d-series highcharts-color-undefined highcharts-series-0" data-z-index="1" transform="translate(8,3)"><path fill="none" d="M 0 11 L 16 11" class="highcharts-graph" stroke-dasharray="none"></path><path fill="#7cb5ec" d="M 8 15 A 4 4 0 1 1 8.003999999333336 14.999998000000167 Z" class="highcharts-point" opacity="1"></path><text x="21" style="color:#333333;cursor:pointer;font-size:12px;font-weight:bold;fill:#333333;" text-anchor="start" data-z-index="2" y="15"><tspan>EN - LVF</tspan></text></g><g class="highcharts-legend-item highcharts-scatter3d-series highcharts-color-undefined highcharts-series-1" data-z-index="1" transform="translate(102.34375,3)"><path fill="none" d="M 0 11 L 16 11" class="highcharts-graph" stroke-dasharray="none"></path><path fill="#90ed7d" d="M 8 15 A 4 4 0 1 1 8.003999999333336 14.999998000000167 Z" class="highcharts-point" opacity="1"></path><text x="21" y="15" style="color:#333333;cursor:pointer;font-size:12px;font-weight:bold;fill:#333333;" text-anchor="start" data-z-index="2"><tspan>EN - RF</tspan></text></g><g class="highcharts-legend-item highcharts-scatter3d-series highcharts-color-undefined highcharts-series-2" data-z-index="1" transform="translate(189.796875,3)"><path fill="none" d="M 0 11 L 16 11" class="highcharts-graph" stroke-dasharray="none"></path><path fill="#f7a35c" d="M 8 15 A 4 4 0 1 1 8.003999999333336 14.999998000000167 Z" class="highcharts-point" opacity="1"></path><text x="21" y="15" style="color:#333333;cursor:pointer;font-size:12px;font-weight:bold;fill:#333333;" text-anchor="start" data-z-index="2"><tspan>EN - FA</tspan></text></g><g class="highcharts-legend-item highcharts-scatter3d-series highcharts-color-undefined highcharts-series-3" data-z-index="1" transform="translate(278.09375,3)"><path fill="none" d="M 0 11 L 16 11" class="highcharts-graph" stroke-dasharray="none"></path><path fill="#434348" d="M 8 15 A 4 4 0 1 1 8.003999999333336 14.999998000000167 Z" class="highcharts-point" opacity="1"></path><text x="21" y="15" style="color:#333333;cursor:pointer;font-size:12px;font-weight:bold;fill:#333333;" text-anchor="start" data-z-index="2"><tspan>EN - PCA</tspan></text></g><g class="highcharts-legend-item highcharts-scatter3d-series highcharts-color-undefined highcharts-series-4" data-z-index="1" transform="translate(375.125,3)"><path fill="none" d="M 0 11 L 16 11" class="highcharts-graph" stroke-dasharray="none"></path><path fill="#8085e9" d="M 8 15 A 4 4 0 1 1 8.003999999333336 14.999998000000167 Z" class="highcharts-point" opacity="1"></path><text x="21" y="15" style="color:#333333;cursor:pointer;font-size:12px;font-weight:bold;fill:#333333;" text-anchor="start" data-z-index="2"><tspan>EN - Full</tspan></text></g><g class="highcharts-legend-item highcharts-scatter3d-series highcharts-color-undefined highcharts-series-5" data-z-index="1" transform="translate(468.8125,3)"><path fill="none" d="M 0 11 L 16 11" class="highcharts-graph" stroke-dasharray="none"></path><path fill="#f15c80" d="M 8 15 A 4 4 0 1 1 8.003999999333336 14.999998000000167 Z" class="highcharts-point" opacity="1"></path><text x="21" y="15" style="color:#333333;cursor:pointer;font-size:12px;font-weight:bold;fill:#333333;" text-anchor="start" data-z-index="2"><tspan>NN - LVF</tspan></text></g><g class="highcharts-legend-item highcharts-scatter3d-series highcharts-color-undefined highcharts-series-6" data-z-index="1" transform="translate(565.515625,3)"><path fill="none" d="M 0 11 L 16 11" class="highcharts-graph" stroke-dasharray="none"></path><path fill="#e4d354" d="M 8 15 A 4 4 0 1 1 8.003999999333336 14.999998000000167 Z" class="highcharts-point" opacity="1"></path><text x="21" y="15" style="color:#333333;cursor:pointer;font-size:12px;font-weight:bold;fill:#333333;" text-anchor="start" data-z-index="2"><tspan>NN - RF</tspan></text></g><g class="highcharts-legend-item highcharts-scatter3d-series highcharts-color-undefined highcharts-series-7" data-z-index="1" transform="translate(655.328125,3)"><path fill="none" d="M 0 11 L 16 11" class="highcharts-graph" stroke-dasharray="none"></path><path fill="#2b908f" d="M 8 15 A 4 4 0 1 1 8.003999999333336 14.999998000000167 Z" class="highcharts-point" opacity="1"></path><text x="21" y="15" style="color:#333333;cursor:pointer;font-size:12px;font-weight:bold;fill:#333333;" text-anchor="start" data-z-index="2"><tspan>NN - FA</tspan></text></g><g class="highcharts-legend-item highcharts-scatter3d-series highcharts-color-undefined highcharts-series-8" data-z-index="1" transform="translate(745.984375,3)"><path fill="none" d="M 0 11 L 16 11" class="highcharts-graph" stroke-dasharray="none"></path><path fill="#f45b5b" d="M 8 15 A 4 4 0 1 1 8.003999999333336 14.999998000000167 Z" class="highcharts-point" opacity="1"></path><text x="21" y="15" style="color:#333333;cursor:pointer;font-size:12px;font-weight:bold;fill:#333333;" text-anchor="start" data-z-index="2"><tspan>NN - PCA</tspan></text></g><g class="highcharts-legend-item highcharts-scatter3d-series highcharts-color-undefined highcharts-series-9" data-z-index="1" transform="translate(845.375,3)"><path fill="none" d="M 0 11 L 16 11" class="highcharts-graph" stroke-dasharray="none"></path><path fill="#91e8e1" d="M 8 15 A 4 4 0 1 1 8.003999999333336 14.999998000000167 Z" class="highcharts-point" opacity="1"></path><text x="21" y="15" style="color:#333333;cursor:pointer;font-size:12px;font-weight:bold;fill:#333333;" text-anchor="start" data-z-index="2"><tspan>NN - Full</tspan></text></g></g></g></g><g class="highcharts-axis-labels highcharts-xaxis-labels" data-z-index="7"><text x="174.146734086891" style="color:#666666;cursor:default;font-size:11px;font-weight:normal;fill:#666666;" text-anchor="end" transform="translate(0,0)" y="878.663618152444" z="555.3309503109509" opacity="1">1</text><text x="173.30086875319716" style="color:#666666;cursor:default;font-size:11px;font-weight:normal;fill:#666666;" text-anchor="end" transform="translate(0,0)" y="760.938910996669" z="541.2937518037305" opacity="1">2</text><text x="172.44633691597562" style="color:#666666;cursor:default;font-size:11px;font-weight:normal;fill:#666666;" text-anchor="end" transform="translate(0,0)" y="642.0080288751925" z="527.1433500827421" opacity="1">4</text><text x="171.94643112864594" style="color:#666666;cursor:default;font-size:11px;font-weight:normal;fill:#666666;" text-anchor="end" transform="translate(0,0)" y="572.4328139153329" z="518.879515477685" opacity="1">6</text><text x="171.58994663330213" style="color:#666666;cursor:default;font-size:11px;font-weight:normal;fill:#666666;" text-anchor="end" transform="translate(0,0)" y="522.818494533473" z="512.9929483617539" opacity="1">8</text><text x="171.31550824862165" style="color:#666666;cursor:default;font-size:11px;font-weight:normal;fill:#666666;" text-anchor="end" transform="translate(0,0)" y="484.62307833439536" z="508.4648198110375" opacity="1">10</text><text x="170.45665552039623" style="color:#666666;cursor:default;font-size:11px;font-weight:normal;fill:#666666;" text-anchor="end" transform="translate(0,0)" y="365.09082905928443" z="494.31441809004923" opacity="1">20</text><text x="169.59593022552087" style="color:#666666;cursor:default;font-size:11px;font-weight:normal;fill:#666666;" text-anchor="end" transform="translate(0,0)" y="245.29796222283557" z="480.16401636906085" opacity="1">40</text><text x="169.09239809743974" style="color:#666666;cursor:default;font-size:11px;font-weight:normal;fill:#666666;" text-anchor="end" transform="translate(0,0)" y="175.21804528970756" z="471.9001817640037" opacity="1">60</text></g><g class="highcharts-axis-labels highcharts-zaxis-labels" data-z-index="7"><text x="1510.1598572217197" style="color:#666666;cursor:default;font-size:11px;font-weight:normal;fill:#666666;" text-anchor="middle" transform="translate(0,0)" y="1033.4545774491883" z="-348.3918370533394" opacity="1">25</text><text x="1549.6548072931332" style="color:#666666;cursor:default;font-size:11px;font-weight:normal;fill:#666666;" text-anchor="middle" transform="translate(0,0)" y="1024.3745656758013" z="-290.5806148844638" opacity="1">50</text><text x="1588.7775052391535" style="color:#666666;cursor:default;font-size:11px;font-weight:normal;fill:#666666;" text-anchor="middle" transform="translate(0,0)" y="1015.3801358230176" z="-232.76939271558803" opacity="1">75</text><text x="1627.533189261148" style="color:#666666;cursor:default;font-size:11px;font-weight:normal;fill:#666666;" text-anchor="middle" transform="translate(0,0)" y="1006.4700836120619" z="-174.95817054671238" opacity="1">100</text><text x="1665.9269997391439" style="color:#666666;cursor:default;font-size:11px;font-weight:normal;fill:#666666;" text-anchor="middle" transform="translate(0,0)" y="997.6432272535898" z="-117.14694837783668" opacity="1">125</text><text x="1703.9639815046844" style="color:#666666;cursor:default;font-size:11px;font-weight:normal;fill:#666666;" text-anchor="middle" transform="translate(0,0)" y="988.89840692515" z="-59.33572620896092" opacity="1">150</text><text x="1741.6490860506087" style="color:#666666;cursor:default;font-size:11px;font-weight:normal;fill:#666666;" text-anchor="middle" transform="translate(0,0)" y="980.2344842631492" z="-1.5245040400853043" opacity="1">175</text></g><g class="highcharts-axis-labels highcharts-yaxis-labels" data-z-index="7"><text x="188.5354408752952" style="color:#666666;cursor:default;font-size:11px;font-weight:normal;fill:#666666;" text-anchor="middle" transform="translate(0,0)" y="958.093950360436" z="555.7837631660225" opacity="1">0</text><text x="233.53360353379583" style="color:#666666;cursor:default;font-size:11px;font-weight:normal;fill:#666666;" text-anchor="middle" transform="translate(0,0)" y="962.9617920870157" z="521.3776501184159" opacity="1">0.025</text><text x="278.7701915814556" style="color:#666666;cursor:default;font-size:11px;font-weight:normal;fill:#666666;" text-anchor="middle" transform="translate(0,0)" y="967.8554263568785" z="486.9715370708093" opacity="1">0.05</text><text x="324.2471050181491" style="color:#666666;cursor:default;font-size:11px;font-weight:normal;fill:#666666;" text-anchor="middle" transform="translate(0,0)" y="972.7750587094979" z="452.56542402320264" opacity="1">0.075</text><text x="369.966264085523" style="color:#666666;cursor:default;font-size:11px;font-weight:normal;fill:#666666;" text-anchor="middle" transform="translate(0,0)" y="977.7208968740761" z="418.159310975596" opacity="1">0.1</text><text x="415.9296095372754" style="color:#666666;cursor:default;font-size:11px;font-weight:normal;fill:#666666;" text-anchor="middle" transform="translate(0,0)" y="982.693150798781" z="383.7531979279893" opacity="1">0.125</text><text x="462.1391029137764" style="color:#666666;cursor:default;font-size:11px;font-weight:normal;fill:#666666;" text-anchor="middle" transform="translate(0,0)" y="987.6920326804559" z="349.3470848803826" opacity="1">0.15</text><text x="508.59672682111324" style="color:#666666;cursor:default;font-size:11px;font-weight:normal;fill:#666666;" text-anchor="middle" transform="translate(0,0)" y="992.7177569948055" z="314.940971832776" opacity="1">0.175</text><text x="555.3044852146418" style="color:#666666;cursor:default;font-size:11px;font-weight:normal;fill:#666666;" text-anchor="middle" transform="translate(0,0)" y="997.7705405270699" z="280.5348587851693" opacity="1">0.2</text><text x="602.2644036871316" style="color:#666666;cursor:default;font-size:11px;font-weight:normal;fill:#666666;" text-anchor="middle" transform="translate(0,0)" y="1002.850602403196" z="246.12874573756267" opacity="1">0.225</text><text x="649.4785297615897" style="color:#666666;cursor:default;font-size:11px;font-weight:normal;fill:#666666;" text-anchor="middle" transform="translate(0,0)" y="1007.9581641215148" z="211.72263268995601" opacity="1">0.25</text><text x="696.9489331888526" style="color:#666666;cursor:default;font-size:11px;font-weight:normal;fill:#666666;" text-anchor="middle" transform="translate(0,0)" y="1013.0934495849349" z="177.31651964234936" opacity="1">0.275</text><text x="744.6777062500381" style="color:#666666;cursor:default;font-size:11px;font-weight:normal;fill:#666666;" text-anchor="middle" transform="translate(0,0)" y="1018.2566851336602" z="142.91040659474268" opacity="1">0.3</text><text x="792.6669640639483" style="color:#666666;cursor:default;font-size:11px;font-weight:normal;fill:#666666;" text-anchor="middle" transform="translate(0,0)" y="1023.4480995784456" z="108.50429354713603" opacity="1">0.325</text><text x="840.9188448995202" style="color:#666666;cursor:default;font-size:11px;font-weight:normal;fill:#666666;" text-anchor="middle" transform="translate(0,0)" y="1028.667924234397" z="74.09818049952938" opacity="1">0.35</text><text x="889.4355104934192" style="color:#666666;cursor:default;font-size:11px;font-weight:normal;fill:#666666;" text-anchor="middle" transform="translate(0,0)" y="1033.9163929553279" z="39.692067451922725" opacity="1">0.375</text><text x="938.2191463728763" style="color:#666666;cursor:default;font-size:11px;font-weight:normal;fill:#666666;" text-anchor="middle" transform="translate(0,0)" y="1039.1937421686837" z="5.285954404316044" opacity="1">0.4</text><text x="987.2719621838688" style="color:#666666;cursor:default;font-size:11px;font-weight:normal;fill:#666666;" text-anchor="middle" transform="translate(0,0)" y="1044.5002109110442" z="-29.12015864329061" opacity="1">0.425</text><text x="1036.5961920247491" style="color:#666666;cursor:default;font-size:11px;font-weight:normal;fill:#666666;" text-anchor="middle" transform="translate(0,0)" y="1049.836040864214" z="-63.52627169089726" opacity="1">0.45</text><text x="1086.194094785426" style="color:#666666;cursor:default;font-size:11px;font-weight:normal;fill:#666666;" text-anchor="middle" transform="translate(0,0)" y="1055.201476391917" z="-97.93238473850391" opacity="1">0.475</text><text x="1136.0679544922082" style="color:#666666;cursor:default;font-size:11px;font-weight:normal;fill:#666666;" text-anchor="middle" transform="translate(0,0)" y="1060.596764577098" z="-132.33849778611057" opacity="1">0.5</text><text x="1186.2200806584199" style="color:#666666;cursor:default;font-size:11px;font-weight:normal;fill:#666666;" text-anchor="middle" transform="translate(0,0)" y="1066.0221552598541" z="-166.74461083371722" opacity="1">0.525</text><text x="1236.6528086409014" style="color:#666666;cursor:default;font-size:11px;font-weight:normal;fill:#666666;" text-anchor="middle" transform="translate(0,0)" y="1071.4779010760003" z="-201.15072388132387" opacity="1">0.55</text><text x="1287.3685000025093" style="color:#666666;cursor:default;font-size:11px;font-weight:normal;fill:#666666;" text-anchor="middle" transform="translate(0,0)" y="1076.9642574962827" z="-235.55683692893052" opacity="1">0.575</text><text x="1338.369542880738" style="color:#666666;cursor:default;font-size:11px;font-weight:normal;fill:#666666;" text-anchor="middle" transform="translate(0,0)" y="1082.4814828662572" z="-269.9629499765372" opacity="1">0.6</text><text x="1389.6583523625777" style="color:#666666;cursor:default;font-size:11px;font-weight:normal;fill:#666666;" text-anchor="middle" transform="translate(0,0)" y="1088.0298384468408" z="-304.36906302414377" opacity="1">0.625</text><text x="1441.2373708657385" style="color:#666666;cursor:default;font-size:11px;font-weight:normal;fill:#666666;" text-anchor="middle" transform="translate(0,0)" y="1093.6095884555511" z="-338.7751760717505" opacity="1">0.65</text><text x="1493.1090685263625" style="color:#666666;cursor:default;font-size:11px;font-weight:normal;fill:#666666;" text-anchor="middle" transform="translate(0,0)" y="1099.221000108449" z="-373.1812891193572" opacity="1">0.675</text></g><g stroke-linejoin="round" class="highcharts-3d-frame highcharts-3d-frame-top" data-z-index="1000"><path fill="rgb(25,25,25)" fill-opacity="0.01" d="M 476.40220135607757 106.63686123169151 L 1769.9048937704313 180.64364318361902 L 1497.0192446843662 216.60029312616166 L 182.52954555071392 137.69629426157007 Z" visibility="hidden"></path><path fill="rgb(25,25,25)" fill-opacity="0.01" d="M 183.28236618689448 137.74148332517524 L 1497.0192446843662 216.60029312616166 L 1769.3779691054986 180.7130731656885 L 476.57598238007824 106.73946442745967 Z" visibility="hidden"></path><path fill="rgb(0,0,0)" fill-opacity="0.01" d="M 476.40220135607757 106.63686123169151 L 182.52954555071392 137.69629426157007 L 183.28236618689448 137.74148332517524 L 476.57598238007824 106.73946442745967 Z" visibility="hidden"></path><path fill="rgb(0,0,0)" fill-opacity="0.01" d="M 1497.0192446843662 216.60029312616166 L 1769.9048937704313 180.64364318361902 L 1769.3779691054986 180.7130731656885 L 1497.0192446843662 216.60029312616166 Z" visibility="hidden"></path><path fill="rgb(0,0,0)" fill-opacity="0.01" d="M 182.52954555071392 137.69629426157007 L 1497.0192446843662 216.60029312616166 L 1497.0192446843662 216.60029312616166 L 183.28236618689448 137.74148332517524 Z" visibility="hidden"></path><path fill="rgb(0,0,0)" fill-opacity="0.01" d="M 1769.9048937704313 180.64364318361902 L 476.40220135607757 106.63686123169151 L 476.57598238007824 106.73946442745967 L 1769.3779691054986 180.7130731656885 Z" visibility="hidden"></path></g><g stroke-linejoin="round" class="highcharts-3d-frame highcharts-3d-frame-right" data-z-index="1000"><path fill="rgb(25,25,25)" fill-opacity="0.01" d="M 1764.1917710894634 957.0878647521329 L 1763.675453088425 956.2198482094805 L 1493.1090685263625 1017.7899155393382 L 1493.1040920277499 1018.8095931403677 Z" visibility="hidden"></path><path fill="rgb(25,25,25)" fill-opacity="0.01" d="M 1497.0192446843662 216.60029312616166 L 1497.0192446843662 216.60029312616166 L 1769.3779691054986 180.7130731656885 L 1769.9048937704313 180.64364318361902 Z" visibility="hidden"></path><path fill="rgb(0,0,0)" fill-opacity="0.01" d="M 1497.0192446843662 216.60029312616166 L 1493.1090685263625 1017.7899155393382 L 1763.675453088425 956.2198482094805 L 1769.3779691054986 180.7130731656885 Z" visibility="hidden"></path><path fill="rgb(0,0,0)" fill-opacity="0.01" d="M 1493.1040920277499 1018.8095931403677 L 1497.0192446843662 216.60029312616166 L 1769.9048937704313 180.64364318361902 L 1764.1917710894634 957.0878647521329 Z" visibility="hidden"></path><path fill="rgb(0,0,0)" fill-opacity="0.01" d="M 1497.0192446843662 216.60029312616166 L 1493.1040920277499 1018.8095931403677 L 1493.1090685263625 1017.7899155393382 L 1497.0192446843662 216.60029312616166 Z" visibility="hidden"></path><path fill="rgb(0,0,0)" fill-opacity="0.01" d="M 1764.1917710894634 957.0878647521329 L 1769.9048937704313 180.64364318361902 L 1769.3779691054986 180.7130731656885 L 1763.675453088425 956.2198482094805 Z" visibility="hidden"></path></g><g stroke-linejoin="round" class="highcharts-3d-frame highcharts-3d-frame-front" data-z-index="1000"><path fill="rgb(25,25,25)" fill-opacity="0.01" d="M 187.7941760520157 883.3276402642678 L 1493.1040920277499 1018.8095931403677 L 1493.1090685263625 1017.7899155393382 L 188.5354408752953 882.4569746021509 Z" visibility="hidden"></path><path fill="rgb(25,25,25)" fill-opacity="0.01" d="M 1497.0192446843662 216.60029312616166 L 182.52954555071392 137.69629426157007 L 183.28236618689448 137.74148332517524 L 1497.0192446843662 216.60029312616166 Z" visibility="hidden"></path><path fill="rgb(0,0,0)" fill-opacity="0.01" d="M 182.52954555071392 137.69629426157007 L 187.7941760520157 883.3276402642678 L 188.5354408752953 882.4569746021509 L 183.28236618689448 137.74148332517524 Z" visibility="hidden"></path><path fill="rgb(0,0,0)" fill-opacity="0.01" d="M 1493.1040920277499 1018.8095931403677 L 1497.0192446843662 216.60029312616166 L 1497.0192446843662 216.60029312616166 L 1493.1090685263625 1017.7899155393382 Z" visibility="hidden"></path><path fill="rgb(0,0,0)" fill-opacity="0.01" d="M 1497.0192446843662 216.60029312616166 L 183.28236618689448 137.74148332517524 L 188.5354408752953 882.4569746021509 L 1493.1090685263625 1017.7899155393382 Z" visibility="hidden"></path><path fill="rgb(0,0,0)" fill-opacity="0.01" d="M 1493.1040920277499 1018.8095931403677 L 187.7941760520157 883.3276402642678 L 182.52954555071392 137.69629426157007 L 1497.0192446843662 216.60029312616166 Z" visibility="hidden"></path></g></svg>